<?xml version="1.0" encoding="utf-8"?>
<!-- Generator: Adobe Illustrator 15.1.0, SVG Export Plug-In . SVG Version: 6.00 Build 0)  -->
<!DOCTYPE svg PUBLIC "-//W3C//DTD SVG 1.1//EN" "http://www.w3.org/Graphics/SVG/1.1/DTD/svg11.dtd">
<svg version="1.1" id="Layer_1" xmlns="http://www.w3.org/2000/svg" xmlns:xlink="http://www.w3.org/1999/xlink" x="0px" y="0px"
	 width="432.155px" height="274.56px" viewBox="0 0 432.155 274.56" enable-background="new 0 0 432.155 274.56"
	 xml:space="preserve">
<g>
	<path d="M409.92,201.12l-68.64,45.12h-85.44V217.92h89.76c2.881,0,5.761-0.961,8.641-2.881l72-52.32
		c6.24-4.8,7.68-13.44,3.359-20.16c-4.8-6.24-13.439-7.68-20.159-3.36L340.8,189.12h-84.96V160.8h89.76c3.36,0,6.24-0.96,9.12-2.88
		l72-57.12c6.24-4.8,7.2-13.92,2.4-20.16c-4.8-6.24-13.92-7.2-20.16-2.4L340.32,132h-84.48v-28.32h89.76
		c3.841,0,7.2-1.44,9.601-3.84l72-66.72c4.319-3.84,5.76-10.08,3.84-15.84s-7.68-9.12-13.44-9.12H332.16
		c-2.4-4.8-7.2-8.16-12.96-8.16H190.56c-3.84,0-7.2,1.44-9.6,3.84l-4.8,4.32H86.4c-3.84,0-7.2,1.44-9.6,3.84l-72,66.24
		c-4.32,3.84-5.76,10.08-3.84,15.84c1.92,5.76,7.68,9.12,13.44,9.12h84v28.32h-84c-8.16,0-14.4,6.24-14.4,14.4
		c0,8.16,6.24,14.4,14.4,14.4h84v28.32h-84c-8.16,0-14.4,6.24-14.4,14.4c0,8.16,6.24,14.4,14.4,14.4h84v28.32h-84
		C6.24,245.76,0,252,0,260.16c0,8.16,6.24,14.4,14.4,14.4h331.2c2.881,0,5.761-0.96,7.681-2.4l72-47.521
		c6.72-4.319,8.64-13.439,4.319-20.159C425.28,198.719,416.16,196.8,409.92,201.12z M339.84,74.4h-64.8l40.8-37.92h65.28
		L339.84,74.4z M92.16,36.96h52.8l-40.8,37.92h-52.8L92.16,36.96z M127.2,92.64l69.12-63.84h85.92l-50.88,47.04
		c-2.88,2.88-4.801,6.72-4.801,10.56v159.84H127.2V92.64z"/>
</g>
</svg>
