<?xml version="1.0" encoding="utf-8"?>
<!-- Generator: Adobe Illustrator 15.1.0, SVG Export Plug-In . SVG Version: 6.00 Build 0)  -->
<!DOCTYPE svg PUBLIC "-//W3C//DTD SVG 1.1//EN" "http://www.w3.org/Graphics/SVG/1.1/DTD/svg11.dtd">
<svg version="1.1" id="Layer_1" xmlns="http://www.w3.org/2000/svg" xmlns:xlink="http://www.w3.org/1999/xlink" x="0px" y="0px"
	 width="343.229px" height="432.72px" viewBox="0 0 343.229 432.72" enable-background="new 0 0 343.229 432.72"
	 xml:space="preserve">
<title>i19 copy 2</title>
<desc>Created with Sketch.</desc>
<g>
	<path d="M13.444,404.271c-0.648-2.568-3.264-4.118-5.827-3.485c-2.568,0.648-4.128,3.255-3.48,5.828l0.648,2.505
		c0.581,2.141,2.52,3.548,4.632,3.548c0.417,0,0.84-0.053,1.258-0.164c2.558-0.695,4.07-3.331,3.384-5.889L13.444,404.271z
		 M13.688,331.383c-1.085,1.377-2.136,2.826-3.134,4.357c-1.45,2.219-0.826,5.194,1.392,6.639c0.811,0.533,1.723,0.787,2.621,0.787
		c1.57,0,3.105-0.768,4.022-2.179c0.84-1.282,1.723-2.501,2.635-3.657c1.642-2.084,1.286-5.104-0.797-6.744
		C18.344,328.953,15.33,329.309,13.688,331.383L13.688,331.383z M5.677,390.662c2.64-0.269,4.56-2.62,4.296-5.256
		c-0.163-1.612-0.292-3.188-0.384-4.723c-0.154-2.646-2.313-4.666-5.069-4.513c-2.645,0.159-4.666,2.425-4.512,5.074
		c0.101,1.67,0.24,3.374,0.413,5.121c0.25,2.473,2.333,4.32,4.771,4.32C5.351,390.687,5.519,390.677,5.677,390.662L5.677,390.662z
		 M34.156,314.534c-1.507,0.802-3.039,1.685-4.579,2.655c-2.242,1.416-2.914,4.382-1.498,6.619c0.912,1.449,2.467,2.241,4.065,2.241
		c0.874,0,1.762-0.24,2.554-0.739c1.33-0.84,2.654-1.604,3.969-2.305c2.338-1.238,3.23-4.146,1.982-6.489
		S36.498,313.271,34.156,314.534L34.156,314.534z M4.967,365.995c0.274,0.048,0.552,0.072,0.816,0.072
		c2.299,0,4.33-1.651,4.728-3.989c0.264-1.541,0.581-3.038,0.941-4.482c0.648-2.568-0.917-5.175-3.494-5.818
		c-2.573-0.648-5.175,0.922-5.813,3.494c-0.417,1.671-0.792,3.398-1.094,5.185C0.599,363.067,2.351,365.549,4.967,365.995
		L4.967,365.995z M76.597,305.491c0,13.752,11.189,24.94,24.941,24.94s24.941-11.188,24.941-24.94s-11.189-24.94-24.941-24.94
		S76.597,291.739,76.597,305.491L76.597,305.491z M56.826,306.889c0.226-0.024,0.427,0.053,0.643,0.057
		c-0.014-0.484-0.072-0.959-0.072-1.454c0-24.38,19.761-44.141,44.141-44.141s44.141,19.761,44.141,44.141
		s-19.761,44.141-44.141,44.141c-20.693,0-38.006-14.256-42.787-33.47c-0.259,0.081-0.49,0.221-0.768,0.254
		c-0.091,0.014-0.84,0.115-2.083,0.365c-0.327,0.066-0.644,0.096-0.956,0.096c-2.242,0-4.243-1.57-4.704-3.85
		c-0.523-2.602,1.157-5.131,3.753-5.654C55.789,307.008,56.826,306.889,56.826,306.889L56.826,306.889z M311.25,372.993
		c-47.957,0-96.427-23.342-127.094-0.182c-23.837-26.674-76.209,0.182-127.373,0.182c-6.307,0-10.771,6.288-8.318,11.981
		c12.067,28.041,40.33,47.745,73.349,47.745c25.214,0,47.63-11.51,62.203-29.429C198.589,421.21,221,432.72,246.219,432.72
		c33.02,0,61.283-19.704,73.349-47.745C322.016,379.281,317.557,372.993,311.25,372.993L311.25,372.993z M122.716,38.462
		c0-4.061-3.293-7.358-7.354-7.358c-4.066,0-7.358,3.297-7.358,7.358V175.44c0,4.061,3.292,7.354,7.358,7.354
		c4.061,0,7.354-3.292,7.354-7.354V38.462z M343.229,215.635c0,15.01-12.164,27.178-27.174,27.178H51.973
		c-15.005,0-27.173-12.168-27.173-27.178c0-15.005,12.168-27.173,27.173-27.173h24.619V27.639C76.592,12.375,88.967,0,104.231,0
		h159.571c15.264,0,27.639,12.375,27.639,27.639v160.824h24.614C331.064,188.462,343.229,200.63,343.229,215.635L343.229,215.635z
		 M221.236,306.11c0-18.94,15.355-34.291,34.296-34.291s34.296,15.351,34.296,34.291s-15.355,34.296-34.296,34.296
		S221.236,325.051,221.236,306.11L221.236,306.11z"/>
</g>
</svg>
