<?xml version="1.0" encoding="utf-8"?>
<!-- Generator: Adobe Illustrator 15.1.0, SVG Export Plug-In . SVG Version: 6.00 Build 0)  -->
<!DOCTYPE svg PUBLIC "-//W3C//DTD SVG 1.1//EN" "http://www.w3.org/Graphics/SVG/1.1/DTD/svg11.dtd">
<svg version="1.1" id="Layer_1" xmlns="http://www.w3.org/2000/svg" xmlns:xlink="http://www.w3.org/1999/xlink" x="0px" y="0px"
	 width="435.898px" height="430.406px" viewBox="0 0 435.898 430.406" enable-background="new 0 0 435.898 430.406"
	 xml:space="preserve">
<path d="M402.932,143.227h-21.479l-23.155,16.238h37.762c1.79,0,3.562,0.226,5.246,0.634c10.377,2.419,18.096,11.812,18.096,23.006
	v206.846c9.845-5.773,16.498-16.539,16.498-28.895V176.64C435.894,158.174,421.129,143.227,402.932,143.227z"/>
<path d="M396.979,173.356H29.117c-3.845,0-6.941-3.115-6.941-6.94c0-3.845,3.101-6.97,6.941-6.97h28.334l9.394-6.787l13.056-9.432
	H33.274C14.895,143.227,0,158.174,0,176.597v6.485v213.936c0,18.445,14.895,33.389,33.273,33.389h340.133
	c18.369,0,33.278-14.943,33.278-33.389V183.082C406.661,177.71,402.317,173.356,396.979,173.356z"/>
<g>
	<path fill="none" d="M218.972,104.29c-26.563-1.392-49.195,18.926-50.515,45.374c-0.173,3.576,0.077,7.066,0.658,10.45h95.025
		c0.298-1.766,0.509-3.557,0.604-5.385C266.055,128.256,245.554,105.677,218.972,104.29z"/>
	<path d="M168.457,149.664c1.32-26.443,23.957-46.761,50.515-45.374c26.582,1.387,47.078,23.961,45.772,50.434
		c-0.096,1.829-0.307,3.619-0.604,5.386h74.77l47.146-35.002L291.27,0L75.658,160.113h93.456
		C168.533,156.729,168.284,153.24,168.457,149.664z"/>
</g>
<polygon points="176.405,2.146 86.765,138.37 226.656,35.27 "/>
</svg>
